PathFileType	4	(X/Y/Z)	D:\TRACE\v60_Jaco2_6-2-23\v60_baseline_4-v60.trc
DataRate	CameraRate	NumFrames	NumMarkers	Units	OrigDataRate	OrigDataStartFrame	OrigNumFrames
100.00	100.00	      31	9	mm	100.00	4876	      6500
Frame#	Time	front left toe			Front right toe			aft left toe			aft right toe			Arm			FL body			FR body			AL Body			AR Body			
		X1	Y1	Z1	X2	Y2	Z2	X3	Y3	Z3	X4	Y4	Z4	X5	Y5	Z5	X6	Y6	Z6	X7	Y7	Z7	X8	Y8	Z8	X9	Y9	Z9	

4876	48.750	-148.41994	19.23727	-126.68892	224.79169	21.78196	-149.74071	-128.07353	20.56390	488.52502	250.14421	17.79598	485.53387	-58.70835	1212.65210	-254.36076	-35.25602	582.84875	-262.71143	124.91393	582.19928	-267.66821	-7.76276	555.38153	682.56836	148.88922	548.81592	678.57239	
4877	48.760	-148.12186	19.17484	-127.34911	222.69337	26.22680	-146.78214	-124.99062	23.26648	490.15640	250.11868	17.82594	485.52884	-57.84243	1213.83167	-252.37718	-35.20100	583.59814	-262.74451	124.91286	583.15186	-267.10397	-7.96674	555.33148	682.25720	148.83170	548.96832	678.56354	
4878	48.770	-148.18475	18.73129	-127.32495	220.89854	34.91962	-145.54080	-121.05148	32.04155	490.33337	250.07895	17.86444	485.30872	-54.40458	1216.18103	-251.17108	-34.94045	584.04401	-262.81503	125.35421	583.36920	-267.10168	-7.75890	555.56067	682.39941	148.74777	549.16418	678.46381	
4879	48.780	-148.40578	18.68410	-127.27712	220.76997	44.20608	-145.58932	-118.42498	41.65610	489.83405	250.02881	17.75109	485.39639	-53.28242	1217.39160	-249.50336	-34.74901	584.27209	-262.83850	125.66959	583.40887	-266.98853	-7.38855	555.37164	682.76019	148.98775	549.08801	678.64703	
4880	48.790	-148.47304	18.52509	-127.29713	221.87064	55.29756	-146.46768	-118.70527	52.58556	489.29178	250.19981	17.61494	485.57101	-53.04176	1217.85181	-248.61736	-34.56627	584.55096	-262.52322	125.80679	583.42908	-266.70264	-7.14792	555.00305	683.00500	149.46976	548.77539	678.80951	
4881	48.800	-148.69977	18.81266	-126.80949	223.48186	66.93058	-147.45572	-119.96464	63.78093	488.80316	250.23938	17.18345	485.66281	-53.45762	1217.12097	-248.16742	-34.70031	584.88434	-262.14087	125.75960	583.45264	-266.61145	-6.45807	554.16357	683.35114	150.10808	547.80463	678.95508	
4882	48.810	-148.73245	18.71864	-127.02148	225.08672	78.80104	-148.09155	-122.06676	75.08227	488.43869	250.27045	16.93581	485.61447	-53.61918	1216.23279	-248.28549	-34.60569	584.89600	-261.69315	126.18620	583.58466	-266.49765	-6.06826	553.56598	683.53821	150.76767	546.74316	679.12323	
4883	48.820	-148.92093	18.59777	-127.02593	226.37738	90.05317	-148.10362	-124.62810	87.59177	488.14423	250.29547	16.83504	485.58813	-55.33933	1214.95764	-247.69664	-34.30137	584.62189	-261.27563	125.49986	583.10852	-266.11768	-5.04156	553.06567	683.79620	151.15279	545.92273	679.41644	
4884	48.830	-148.95087	18.43281	-126.94465	227.18365	100.78882	-147.61220	-124.47522	98.34818	489.00687	250.35480	16.78940	485.57095	-53.49717	1214.99829	-247.82187	-34.45629	583.86639	-260.98798	125.81917	582.75183	-266.11426	-4.53457	552.81744	683.95728	151.93150	545.61078	679.62152	
4885	48.840	-148.85283	18.27077	-126.77049	228.02789	110.99586	-146.36592	-123.76356	108.08176	490.24997	250.43069	16.72961	485.53122	-53.68097	1214.85608	-247.04291	-34.66666	583.16235	-260.66693	125.72356	582.24689	-265.87131	-4.07935	552.71014	684.30640	152.47656	545.58478	679.89148	
4886	48.850	-148.83339	18.34981	-126.58938	229.18803	120.41998	-145.27718	-121.98995	116.91396	491.43066	250.58760	16.63908	485.49033	-55.08165	1214.38647	-246.17725	-35.03665	582.82977	-260.10236	125.23230	581.44116	-265.10992	-3.51835	552.67096	684.92499	153.27225	545.79211	680.37695	
4887	48.860	-149.06258	18.52310	-126.39749	229.97079	128.70245	-144.10701	-120.21259	125.02776	492.92612	250.68158	16.60320	485.52612	-53.85398	1214.21118	-246.10130	-35.24019	582.23291	-259.61258	125.00573	580.80176	-264.94009	-2.96386	552.77142	685.42657	153.53992	545.79266	680.54291	
4888	48.870	-149.18419	18.45453	-126.35474	230.49503	135.89186	-143.10352	-120.29185	132.84244	493.80270	250.76762	16.50448	485.55804	-54.08429	1213.68396	-246.26198	-35.19218	581.58032	-259.13519	125.39360	580.12781	-264.71390	-2.39747	552.47174	686.14246	153.89719	545.63477	680.95099	
4889	48.880	-149.15677	18.24664	-126.26882	231.22572	141.84787	-141.89238	-120.04740	137.99294	495.08841	250.75737	16.36984	485.56036	-55.37734	1212.10229	-246.25079	-35.34574	580.95563	-258.49835	124.97455	579.79077	-264.32526	-1.69624	552.42932	686.73157	154.45081	545.66364	681.36438	
4890	48.890	-149.21956	18.28225	-126.22773	231.94757	145.10962	-140.77707	-120.86452	141.54947	496.47095	250.88025	16.33639	485.57071	-55.14345	1211.30408	-246.64537	-35.83473	580.65436	-257.91589	124.26231	579.31329	-263.61194	-0.99763	552.87573	687.17603	155.60153	545.95752	681.80560	
4891	48.900	-149.20409	18.32484	-126.13264	232.17938	145.61826	-139.47049	-121.43273	142.64021	497.84122	250.91931	16.27044	485.60910	-56.36395	1210.27429	-246.39114	-35.97300	580.35913	-257.60995	123.99168	578.97424	-263.17426	-0.59798	553.21051	687.55872	156.47842	546.22449	682.19049	
4892	48.910	-149.20587	18.31562	-126.07132	232.56015	143.03860	-137.83205	-122.40318	141.92627	499.40210	250.97237	16.27252	485.61472	-56.97531	1210.01404	-246.10252	-36.08784	580.02008	-256.99939	123.82581	578.61084	-262.74612	0.39514	553.24567	688.25543	156.52684	546.12378	682.55414	
4893	48.920	-149.30135	18.30269	-126.00635	232.59993	139.06331	-136.13506	-121.46853	138.78183	501.48560	251.01624	16.26418	485.61441	-57.45212	1210.38684	-245.68449	-35.89559	579.51825	-256.03711	124.03291	578.35352	-262.72061	0.57049	553.71252	688.63037	157.06250	546.44458	682.87885	
4894	48.930	-149.28168	18.25523	-125.93478	232.01695	133.75888	-134.67921	-121.00210	135.41331	503.50519	251.00887	16.26496	485.60712	-57.84628	1210.49329	-245.02187	-36.94414	579.65314	-255.84134	123.16561	578.00330	-262.03442	0.90296	553.93976	689.01294	157.69211	546.82703	683.38586	
4895	48.940	-149.16599	18.21984	-125.77374	231.46396	127.63680	-133.44310	-119.38435	129.35030	506.04050	251.01094	16.26097	485.61298	-58.04305	1210.49084	-244.36581	-36.69060	579.30927	-255.38156	122.85588	577.81171	-261.80652	1.81807	554.00519	689.74420	158.07198	546.89117	683.64435	
4896	48.950	-149.09343	18.26396	-125.72166	231.68517	121.64558	-132.50063	-120.09845	123.87823	507.73694	251.00453	16.23589	485.61768	-57.16661	1210.48462	-244.16010	-36.74039	579.23901	-255.13396	123.07150	577.88684	-262.04208	2.12660	554.03839	690.33411	158.61559	546.76123	683.88037	
4897	48.960	-149.14784	18.36558	-125.75957	231.74504	115.52747	-131.89047	-120.74644	116.99875	509.13611	251.04395	16.25492	485.64261	-56.56318	1210.06641	-243.94511	-37.51799	579.58228	-254.50960	122.37650	577.86389	-261.44049	2.43466	554.08948	690.52863	158.80814	546.36713	684.22705	
4898	48.970	-149.18245	18.31579	-125.70933	232.49905	108.43625	-131.48604	-121.17865	109.47585	510.53940	251.07405	16.24405	485.62479	-56.63208	1210.09753	-243.56082	-38.10238	579.49341	-254.10500	122.54337	577.81982	-261.23102	2.59791	553.83026	690.79187	159.12735	546.18994	684.44177	
4899	48.980	-149.24127	18.18569	-125.63914	232.49452	100.80319	-131.27225	-121.36829	100.80046	511.45035	251.17271	16.23964	485.66461	-56.73199	1210.12280	-242.95789	-38.13631	579.22766	-253.69864	121.79083	577.64380	-260.26718	3.08819	553.56024	691.40863	159.81604	546.24811	684.94647	
4900	48.990	-149.11871	17.98509	-125.54897	232.46671	92.54681	-131.11920	-121.69825	92.22060	512.06104	251.20071	16.21788	485.64908	-57.20321	1210.15747	-242.58954	-37.62495	579.04218	-253.02153	121.88406	577.54907	-260.44788	3.54987	553.52521	691.95288	159.98929	546.24011	685.23053	
4901	49.000	-149.03790	17.92658	-125.51657	232.29416	84.09084	-130.32852	-120.17953	83.16449	512.51025	251.37708	16.25573	485.70374	-57.99545	1210.52686	-241.77525	-38.59135	579.24878	-252.82661	121.79769	577.36713	-260.20959	3.88394	553.68439	692.09375	160.18929	546.09454	685.56476	
4902	49.010	-149.06787	18.07701	-125.50130	232.26956	75.23425	-129.57925	-120.21325	74.81792	512.77179	251.44525	16.22251	485.72574	-58.14359	1210.57117	-241.15994	-38.64828	579.27734	-252.43620	121.80569	577.35944	-259.85864	4.00389	553.56146	692.33252	160.27649	545.91699	685.82483	
4903	49.020	-149.13376	18.15933	-125.43177	231.78748	66.36293	-128.71428	-120.32048	66.05274	512.85242	251.40063	16.19046	485.70581	-57.18057	1210.75610	-241.74660	-39.04123	579.31073	-251.87135	121.46635	577.42688	-259.42468	4.28263	553.29089	692.69257	160.49255	545.64886	686.07483	
4904	49.030	-149.10472	18.03925	-125.38699	232.01811	57.75878	-128.25186	-121.46072	57.55542	513.15869	251.22360	16.11971	485.65314	-56.87898	1210.54822	-241.11359	-39.23409	579.43365	-251.52130	121.15149	577.51996	-258.99698	4.62777	552.84186	693.36389	160.90666	545.38788	686.35553	
4905	49.040	-148.99576	17.86761	-125.32359	232.23805	49.61765	-128.02925	-121.74041	48.88250	513.55121	251.22076	16.09874	485.65207	-57.00523	1210.44263	-240.58864	-39.35775	579.50995	-251.16309	120.34689	577.49670	-258.44354	4.57585	552.56897	693.94708	161.25887	545.27844	686.85083	
4906	49.050	-148.96936	17.87697	-125.38007	232.65877	41.74527	-127.97743	-121.59309	40.66284	513.87103	251.33929	16.09483	485.69174	-58.15054	1210.33716	-239.59004	-39.75378	579.41492	-250.71902	120.02625	577.52942	-258.30374	4.73532	552.51196	693.86206	161.44237	545.11725	687.02014	
